<svg xmlns="http://www.w3.org/2000/svg" viewBox="0 0 900 1600" preserveAspectRatio="xMidYMid slice"><defs><linearGradient id="sky" x2="0" y2="1"><stop stop-color="#050719"/><stop offset=".55" stop-color="#10133a"/><stop offset="1" stop-color="#251044"/></linearGradient><linearGradient id="road" x2="0" y2="1"><stop stop-color="#17132e"/><stop offset="1" stop-color="#050611"/></linearGradient><linearGradient id="tower" x2="1" y2="0"><stop stop-color="#3b2364"/><stop offset=".48" stop-color="#a735d1"/><stop offset="1" stop-color="#35175d"/></linearGradient><radialGradient id="halo"><stop stop-color="#d64cff" stop-opacity=".48"/><stop offset="1" stop-color="#6d1dcc" stop-opacity="0"/></radialGradient><filter id="blur"><feGaussianBlur stdDeviation="14"/></filter><filter id="glow"><feGaussianBlur stdDeviation="5"/></filter></defs><rect width="900" height="1600" fill="url(#sky)"/><circle cx="650" cy="410" r="250" fill="url(#halo)"/><g opacity=".9" fill="#090b20"><path d="M0 420h125v540H0z"/><path d="M130 500h120v460H130z"/><path d="M655 410h115v550H655z"/><path d="M775 330h125v630H775z"/><path d="M260 570h100v390H260z"/><path d="M535 525h110v435H535z"/></g><g fill="#a96cff" opacity=".34"><rect x="22" y="500" width="34" height="55"/><rect x="78" y="500" width="34" height="55"/><rect x="155" y="570" width="30" height="48"/><rect x="205" y="570" width="30" height="48"/><rect x="682" y="480" width="30" height="52"/><rect x="728" y="480" width="30" height="52"/><rect x="810" y="410" width="34" height="58"/><rect x="860" y="410" width="22" height="58"/><rect x="280" y="625" width="26" height="45"/><rect x="320" y="625" width="26" height="45"/><rect x="555" y="585" width="28" height="46"/><rect x="602" y="585" width="28" height="46"/></g><path d="M0 900Q180 810 360 900T720 890T900 850V1600H0Z" fill="url(#road)"/><path d="M0 950L315 850 405 1600H0Z" fill="#0b0b1e"/><path d="M900 920L610 840 500 1600H900Z" fill="#0b0b1e"/><g opacity=".5" filter="url(#glow)" fill="#e83dff"><circle cx="90" cy="980" r="13"/><circle cx="180" cy="945" r="10"/><circle cx="760" cy="965" r="13"/><circle cx="845" cy="930" r="10"/><circle cx="430" cy="1050" r="9"/></g><g stroke="#b46cff" stroke-width="4" opacity=".35"><path d="M90 980v100"/><path d="M180 945v110"/><path d="M760 965v105"/><path d="M845 930v115"/></g><g transform="translate(405 265)"><ellipse cx="55" cy="360" rx="220" ry="230" fill="#a933e8" opacity=".16" filter="url(#blur)"/><path d="M0 720h115V180H0z" fill="url(#tower)"/><path d="M12 210h91l-10-35H22z" fill="#c45cff"/><path d="M8 250h99v14H8zM8 315h99v13H8zM8 380h99v13H8zM8 445h99v13H8zM8 510h99v13H8zM8 575h99v13H8z" fill="#d266ff" opacity=".72"/><path d="M-12 175h140l-22-30H10z" fill="#512274"/><path d="M-22 145h160l-28-22H6z" fill="#7d2bb1"/><path d="M5 125L55 75l55 50z" fill="#5f258c"/><path d="M40 82l15-55 15 55z" fill="#b84cff"/><g transform="translate(18 -5) rotate(-8)"><path d="M38 55l-8-70 30-50 30 50-8 70z" fill="#d7a35c"/><path d="M25 -10L-25 -35 5 -48 38 -25z" fill="#e1b16c"/><path d="M92 -12l47-36 8 18-48 52z" fill="#e1b16c"/><path d="M50 -63l5-37 12 0 5 37z" fill="#e7ba74"/><circle cx="61" cy="-112" r="8" fill="#e7ba74"/><path d="M49 -42L35 -88 49 -70 61 -43 74 -70 88 -88 74 -42z" fill="#efc17b"/></g></g><g opacity=".8"><path d="M205 870v170" stroke="#ffd06f" stroke-width="5"/><circle cx="205" cy="870" r="10" fill="#ffd06f"/><path d="M700 850v180" stroke="#ffd06f" stroke-width="5"/><circle cx="700" cy="850" r="10" fill="#ffd06f"/></g><path d="M0 1210Q210 1140 420 1220T900 1170V1600H0Z" fill="#050611" opacity=".9"/><path d="M110 1260h680" stroke="#7733a8" stroke-width="3" opacity=".35"/><path d="M260 1310h380" stroke="#a944e8" stroke-width="2" opacity=".28"/></svg>