<svg xmlns="http://www.w3.org/2000/svg" viewBox="0 0 600 1280" preserveAspectRatio="xMidYMid slice"><defs><linearGradient id="a" x1="0" y1="0" x2="0" y2="1"><stop stop-color="#f6fbff"/><stop offset=".55" stop-color="#d9eef1"/><stop offset="1" stop-color="#b8d2d6"/></linearGradient><linearGradient id="b" x1="0" y1="0" x2="1" y2="1"><stop stop-color="#d8b18a"/><stop offset="1" stop-color="#9b6e4e"/></linearGradient><linearGradient id="c" x1="0" y1="0" x2="1" y2="1"><stop stop-color="#23303b"/><stop offset="1" stop-color="#0f151c"/></linearGradient><linearGradient id="d" x1="0" y1="0" x2="0" y2="1"><stop stop-color="#f8feff"/><stop offset="1" stop-color="#c8f7fb"/></linearGradient></defs><rect width="600" height="1280" fill="url(#a)"/><rect y="365" width="600" height="915" fill="#f2f7f8"/><rect x="34" y="230" width="170" height="330" rx="18" fill="#f7fbfc" stroke="#bfd7dc"/><rect x="230" y="210" width="338" height="340" rx="18" fill="#f7fbfc" stroke="#bfd7dc"/><g stroke="#d4e6e8" stroke-width="10"><path d="M50 320H188"/><path d="M50 420H188"/><path d="M248 320H548"/><path d="M248 420H548"/></g><g fill="#d9bf9f"><path d="M70 272h58l12 44H58Z"/><path d="M145 272h42l10 44H140Z"/></g><g fill="#9ab7bd"><path d="M265 270h52v70h-52Z"/><path d="M345 270h50v70h-50Z"/><path d="M420 270h55v70h-55Z"/><path d="M500 270h38v70h-38Z"/></g><rect x="438" y="72" width="128" height="170" rx="18" fill="#16202b"/><text x="458" y="112" fill="#fff" font-family="Arial" font-size="18" font-weight="700">Tu negocio</text><text x="458" y="138" fill="#fff" font-family="Arial" font-size="18">también</text><text x="458" y="164" fill="#fff" font-family="Arial" font-size="18">crece con</text><text x="458" y="191" fill="#33e2cf" font-family="Arial" font-size="20" font-weight="800">VaniDaxi</text><path d="M496 205l12 18 12-18" stroke="#fff" stroke-width="7" fill="none"/><rect y="760" width="600" height="90" fill="url(#b)"/><rect y="850" width="600" height="120" fill="#b98f6e"/><rect y="970" width="600" height="310" fill="#ece9e4"/><g transform="translate(92 485)"><circle cx="108" cy="48" r="34" fill="#d6a178"/><path d="M73 48Q80-2 128 17Q155 30 142 74L98 74Z" fill="#2b1c19"/><path d="M65 96Q108 72 150 98L190 344L18 344Z" fill="url(#c)"/><path d="M46 126L12 290M151 126L189 275" stroke="#2b3842" stroke-width="24" stroke-linecap="round"/><path d="M18 280L-2 342M190 267L210 326" stroke="#d6a178" stroke-width="17" stroke-linecap="round"/></g><g transform="translate(286 612) rotate(-4)"><rect width="275" height="360" rx="24" fill="#172b38"/><rect x="14" y="16" width="247" height="328" rx="18" fill="url(#d)"/><rect x="31" y="35" width="110" height="20" rx="8" fill="#0e8f90"/><text x="35" y="50" fill="#fff" font-family="Arial" font-size="12" font-weight="700">VaniDaxi</text><rect x="31" y="76" width="96" height="60" rx="12" fill="#fff"/><rect x="139" y="76" width="100" height="60" rx="12" fill="#fff"/><text x="42" y="101" fill="#174550" font-family="Arial" font-size="11" font-weight="700">Ventas</text><text x="42" y="123" fill="#0c8f86" font-family="Arial" font-size="17" font-weight="800">$12,480</text><text x="150" y="101" fill="#174550" font-family="Arial" font-size="11" font-weight="700">Pedidos</text><text x="150" y="123" fill="#0c8f86" font-family="Arial" font-size="17" font-weight="800">48</text><rect x="31" y="151" width="208" height="116" rx="12" fill="#fff"/><path d="M48 238L78 212 104 220 130 186 154 202 183 166 220 180" fill="none" stroke="#14c9c3" stroke-width="8" stroke-linecap="round" stroke-linejoin="round"/><g fill="#d3eff2"><rect x="46" y="274" width="40" height="46" rx="8"/><rect x="95" y="264" width="40" height="56" rx="8"/><rect x="144" y="286" width="40" height="34" rx="8"/><rect x="193" y="254" width="40" height="66" rx="8"/></g></g></svg>